<svg xmlns="http://www.w3.org/2000/svg" viewBox="0 0 81 81" width="81" height="81">
  <path fill="none" stroke="#969799" stroke-width="2.5" stroke-linecap="round" stroke-linejoin="round"
    d="M40.5 68c-2 0-4-.5-5.8-1.5-3.4-1.9-6.2-5.2-8-9.2C24 50 22 44 22 38c0-10 8-18 18.5-18s18.5 8 18.5 18c0 6-2 12-4.7 19.3-1.8 4-4.6 7.3-8 9.2-1.8 1-3.8 1.5-5.8 1.5z"/>
  <path fill="none" stroke="#969799" stroke-width="2.5" stroke-linecap="round" stroke-linejoin="round"
    d="M40.5 20c-2.8 0-5.5.8-7.8 2.2-2.2 1.4-4 3.3-5 5.6-1 2.3-1.5 5-1.5 7.8 0 5 1.2 9.8 3.2 14 1 2 2.2 3.8 3.5 5.3 1.3 1.5 2.8 2.7 4.3 3.6 2.2 1.3 4.6 2 7 2 2 0 4-.5 5.8-1.5 3.4-1.9 6.2-5.2 8-9.2 2.7-7 4.7-13 4.7-19 0-2.8-.5-5.5-1.5-7.8-1-2.3-2.8-4.2-5-5.6C46 20.8 43.3 20 40.5 20z"/>
</svg>
